<svg aria-hidden="true" style="position: absolute; width: 0; height: 0; overflow: hidden;" version="1.1" xmlns="http://www.w3.org/2000/svg" xmlns:xlink="http://www.w3.org/1999/xlink">
<defs>
<symbol id="icon-templates" viewBox="0 0 32 32">
<path fill="none" stroke="#b7b7b7" style="stroke: var(--color1, #b7b7b7)" stroke-linejoin="round" stroke-linecap="round" stroke-miterlimit="4" stroke-width="1.9469" d="M14.113 22.552l-0.916 0.153c-0.671 0.112-1.263-0.446-1.19-1.122l0.102-0.946c0.049-0.456 0.24-0.886 0.546-1.228l3.993-4.357c0.471-0.51 1.267-0.541 1.777-0.069l0.841 0.781c0.51 0.472 0.541 1.267 0.069 1.777l-3.949 4.309c-0.332 0.371-0.782 0.62-1.275 0.702z"></path>
<path fill="none"  stroke="#b7b7b7" style="stroke: var(--color1, #b7b7b7)" stroke-linejoin="miter" stroke-linecap="butt" stroke-miterlimit="4" stroke-width="1.8444" d="M17.456 4.279c0.628 0 1.239 0.213 1.729 0.605l4.951 3.961c0.656 0.525 1.038 1.32 1.038 2.16v14.484c-0 1.528-1.239 2.766-2.767 2.766h-13.495c-1.528 0-2.767-1.238-2.767-2.766v-18.444c0-1.528 1.239-2.767 2.767-2.767h8.544z"></path>
<path fill="none"  stroke="#b7b7b7" style="stroke: var(--color1, #b7b7b7)" stroke-linejoin="round" stroke-linecap="round" stroke-miterlimit="4" stroke-width="1.9469" d="M18.131 4.667v3.754c-0.001 1.832 1.482 3.32 3.315 3.324h3.555"></path>
</symbol>
<symbol id="icon-lock" viewBox="0 0 32 32">
<path d="M20.931 12.136c-0.399-0.005-0.836-0.007-1.336-0.007h-7.189c-0.501 0-0.939 0.001-1.337 0.007v-2.149c0.045-2.683 2.184-4.809 4.869-4.844h0.061c2.692 0 4.899 2.171 4.932 4.855v2.139zM17 21.916c0 0.552-0.448 1-1 1s-1-0.448-1-1v-2.893c0-0.552 0.448-1 1-1s1 0.448 1 1v2.893zM26.080 14.772c-0.464-0.957-1.241-1.731-2.183-2.175-0.296-0.144-0.612-0.24-0.967-0.309v-2.303c-0.048-3.82-3.201-6.927-7.019-6.843-3.773 0.048-6.78 3.040-6.844 6.827v2.319c-0.352 0.068-0.667 0.163-0.96 0.305-0.947 0.447-1.724 1.22-2.192 2.183-0.457 0.964-0.457 2.079-0.457 4.3v2.84c0 2.233 0 3.355 0.459 4.3 0.457 0.963 1.213 1.72 2.192 2.196 0.956 0.451 2.072 0.451 4.296 0.451h7.189c2.224 0 3.339 0 4.303-0.455 0.959-0.467 1.733-1.245 2.181-2.187 0.463-0.951 0.463-2.072 0.463-4.305v-2.84c0-2.221-0-3.336-0.461-4.304z"></path>
</symbol>
<symbol id="icon-unlock" viewBox="0 0 32 32">
<path  stroke="#fff" style="stroke: var(--color1, #fff)" stroke-linejoin="round" stroke-linecap="round" stroke-miterlimit="4" stroke-width="2" d="M16 19.025v2.882"></path>
<path  d="M13.738 3.521c3.608-1.256 7.553 0.651 8.809 4.259 0.181 0.521-0.096 1.090-0.617 1.272s-1.090-0.094-1.272-0.616c-0.893-2.564-3.698-3.92-6.262-3.027h-0.002c-1.964 0.683-3.286 2.531-3.3 4.611v2.114l1.311-0.005 8.525 0.006c0.399 0.005 1.645 0.084 2 0.153s0.671 0.165 0.967 0.309c0.941 0.444 1.719 1.216 2.183 2.173 0.461 0.968 0.461 2.084 0.461 4.305v2.839l-0.008 1.481c-0.022 1.303-0.108 2.112-0.455 2.825-0.448 0.941-1.223 1.719-2.181 2.186l-0.37 0.15c-0.89 0.305-1.986 0.305-3.933 0.305l-8.664-0.006c-1.081-0.018-1.821-0.080-2.453-0.295l-0.369-0.148c-0.978-0.476-1.733-1.234-2.191-2.197-0.458-0.945-0.459-2.067-0.459-4.3v-2.839c0-2.221 0-3.336 0.458-4.3 0.468-0.963 1.246-1.736 2.192-2.183 0.22-0.107 0.451-0.187 0.702-0.248l0.258-0.056c0.008-0.002 0.017-0.003 0.027-0.005v-2.277l0.025-0.545c0.23-2.701 2.028-5.041 4.619-5.942zM11.095 14.136c-0.14 0.002-0.507 0.020-0.903 0.048-0.191 0.014-0.373 0.028-0.522 0.042-0.142 0.014-0.21 0.024-0.222 0.025-0.23 0.044-0.369 0.094-0.466 0.141l-0.009 0.005-0.011 0.006c-0.523 0.247-0.97 0.681-1.244 1.239-0.215 0.46-0.259 1.037-0.259 3.434v2.839c0 1.15 0.001 1.892 0.050 2.466 0.034 0.404 0.088 0.646 0.147 0.814l0.061 0.148 0.008 0.014c0.256 0.538 0.673 0.965 1.244 1.247 0.454 0.212 1.030 0.258 3.438 0.258h7.189c2.384 0 2.971-0.045 3.431-0.256 0.556-0.272 0.998-0.72 1.247-1.244l0.008-0.016c0.085-0.176 0.165-0.428 0.211-0.967 0.049-0.574 0.050-1.314 0.050-2.464v-2.839c0-2.412-0.046-2.98-0.267-3.444v-0.002c-0.269-0.548-0.714-0.982-1.23-1.225l-0.022-0.009c-0.102-0.050-0.245-0.1-0.477-0.145-0.013-0.002-0.080-0.011-0.219-0.025-0.148-0.015-0.33-0.030-0.52-0.044-0.395-0.028-0.762-0.045-0.903-0.047-0.385-0.005-0.812-0.006-1.309-0.006h-7.189c-0.499 0-0.926 0.001-1.311 0.006z"></path>
</symbol>
<symbol id="icon-radio-button-on" viewBox="0 0 32 32">
<path d="M4.8 16c0-6.186 5.014-11.2 11.2-11.2s11.2 5.014 11.2 11.2c0 6.186-5.014 11.2-11.2 11.2s-11.2-5.014-11.2-11.2z"></path>
<path d="M30.4 16c0-7.953-6.447-14.4-14.4-14.4s-14.4 6.447-14.4 14.4c0 7.953 6.447 14.4 14.4 14.4v1.6c-8.837 0-16-7.164-16-16s7.163-16 16-16c8.836 0 16 7.163 16 16s-7.164 16-16 16v-1.6c7.953 0 14.4-6.447 14.4-14.4z"></path>
</symbol>
<symbol id="icon-radio-button-off" viewBox="0 0 32 32">
<path d="M30.4 16c0-7.953-6.447-14.4-14.4-14.4s-14.4 6.447-14.4 14.4c0 7.953 6.447 14.4 14.4 14.4v1.6c-8.837 0-16-7.164-16-16s7.163-16 16-16c8.836 0 16 7.163 16 16s-7.164 16-16 16v-1.6c7.953 0 14.4-6.447 14.4-14.4z"></path>
</symbol>
<symbol id="icon-add" viewBox="0 0 32 32">
<path d="M14.222 17.778h-13.63v-3.556h13.63v-13.63h3.556v13.63h13.63v3.556h-13.63v13.628h-3.556v-13.628z"></path>
</symbol>
<symbol id="icon-burger" viewBox="0 0 32 32">
<path fill="#fff" style="fill: var(--color1, #fff)" d="M7.635 20.443h17.324c0.176 0 0.326-0.062 0.449-0.186s0.186-0.277 0.186-0.459c0-0.169-0.062-0.316-0.186-0.439-0.124-0.13-0.273-0.195-0.449-0.195h-17.324c-0.176 0-0.326 0.065-0.449 0.195-0.124 0.124-0.186 0.27-0.186 0.439 0 0.182 0.062 0.335 0.186 0.459s0.273 0.186 0.449 0.186zM7.635 16.352h17.324c0.176 0 0.326-0.059 0.449-0.176 0.124-0.124 0.186-0.274 0.186-0.449 0-0.182-0.062-0.335-0.186-0.459s-0.273-0.186-0.449-0.186h-17.324c-0.176 0-0.326 0.062-0.449 0.186s-0.186 0.277-0.186 0.459c0 0.176 0.062 0.326 0.186 0.449 0.124 0.117 0.273 0.176 0.449 0.176zM7.635 12.27h17.324c0.176 0 0.326-0.062 0.449-0.185s0.186-0.274 0.186-0.449c0-0.169-0.062-0.316-0.186-0.44-0.124-0.13-0.273-0.195-0.449-0.195h-17.324c-0.176 0-0.326 0.065-0.449 0.195-0.124 0.124-0.186 0.27-0.186 0.44 0 0.176 0.062 0.325 0.186 0.449s0.273 0.185 0.449 0.185z"></path>
</symbol>
<symbol id="icon-more-dotes" viewBox="0 0 109 32">
<path d="M18.422 30.952c-3.52 0-6.533-1.253-9.040-3.76s-3.76-5.52-3.76-9.040 1.253-6.533 3.76-9.040c2.507-2.507 5.52-3.76 9.040-3.76s6.533 1.253 9.040 3.76c2.507 2.507 3.76 5.52 3.76 9.040s-1.253 6.533-3.76 9.040c-2.507 2.507-5.52 3.76-9.040 3.76zM56.822 30.952c-3.52 0-6.533-1.253-9.040-3.76s-3.76-5.52-3.76-9.040 1.253-6.533 3.76-9.040c2.507-2.507 5.52-3.76 9.040-3.76s6.533 1.253 9.040 3.76c2.507 2.507 3.76 5.52 3.76 9.040s-1.253 6.533-3.76 9.040c-2.507 2.507-5.52 3.76-9.040 3.76zM95.222 30.952c-3.52 0-6.533-1.253-9.040-3.76s-3.76-5.52-3.76-9.040 1.254-6.533 3.76-9.040c2.507-2.507 5.52-3.76 9.040-3.76s6.534 1.253 9.040 3.76c2.507 2.507 3.76 5.52 3.76 9.040s-1.253 6.533-3.76 9.040c-2.506 2.507-5.52 3.76-9.040 3.76z"></path>
</symbol>
<symbol id="icon-thin-add" viewBox="0 0 31 32">
<path d="M14.65 31.426v-14.423h-14.043v-2.404h14.043v-14.423h2.341v14.423h14.043v2.404h-14.043v14.423h-2.341z"></path>
</symbol>
<symbol id="icon-banners" viewBox="0 0 32 32">
<path fill="#b7b7b7" style="fill: var(--color1, #b7b7b7)" d="M8 18.354c0-0.552 0.448-1 1-1h7.334c0.552 0 1 0.448 1 1s-0.448 1-1 1h-7.334c-0.552 0-1-0.448-1-1z"></path>
<path fill="#b7b7b7" style="fill: var(--color1, #b7b7b7)" d="M8 13.516c0-0.552 0.448-1 1-1h3.562c0.552 0 1 0.448 1 1s-0.448 1-1 1h-3.562c-0.552 0-1-0.448-1-1z"></path>
<path fill="#b7b7b7" style="fill: var(--color1, #b7b7b7)" d="M11.587 5.333h9.495c1.227 0 2.207 0 2.999 0.063 0.813 0.064 1.512 0.199 2.158 0.515 1.129 0.553 2.043 1.466 2.596 2.596 0.316 0.646 0.451 1.346 0.515 2.158 0.063 0.792 0.063 1.772 0.063 2.999v3.825c0 1.227 0 2.207-0.063 2.999-0.064 0.812-0.199 1.512-0.515 2.158-0.553 1.129-1.467 2.043-2.596 2.596-0.646 0.317-1.346 0.451-2.158 0.515-0.792 0.063-1.772 0.063-2.999 0.063h-9.495c-1.227 0-2.207 0-2.999-0.063-0.812-0.064-1.512-0.199-2.158-0.515-1.129-0.553-2.043-1.466-2.596-2.596-0.316-0.646-0.451-1.346-0.515-2.158-0.063-0.792-0.063-1.772-0.063-2.999v-3.825c0-1.227 0-2.207 0.063-2.999 0.064-0.812 0.199-1.512 0.515-2.158 0.553-1.129 1.466-2.043 2.596-2.596 0.646-0.316 1.346-0.451 2.158-0.515 0.792-0.063 1.772-0.063 2.999-0.063zM8.745 7.39c-0.693 0.055-1.11 0.158-1.436 0.318-0.731 0.358-1.322 0.949-1.68 1.68-0.159 0.325-0.263 0.743-0.318 1.436-0.056 0.704-0.056 1.605-0.056 2.884v3.741c0 1.279 0.001 2.18 0.056 2.884 0.055 0.693 0.158 1.11 0.318 1.436 0.358 0.731 0.949 1.322 1.68 1.68 0.325 0.159 0.743 0.263 1.436 0.317 0.704 0.056 1.605 0.056 2.884 0.056h9.411c1.279 0 2.18-0.001 2.884-0.056 0.693-0.055 1.11-0.158 1.436-0.317 0.731-0.358 1.322-0.949 1.68-1.68 0.159-0.325 0.263-0.743 0.318-1.436 0.056-0.704 0.056-1.605 0.056-2.884v-3.741c0-1.279-0.001-2.18-0.056-2.884-0.055-0.693-0.158-1.11-0.318-1.436-0.358-0.731-0.949-1.322-1.68-1.68-0.325-0.159-0.743-0.263-1.436-0.318-0.704-0.056-1.605-0.056-2.884-0.056h-9.411c-1.279 0-2.18 0.001-2.884 0.056z"></path>
</symbol>
<symbol id="icon-media" viewBox="0 0 32 32">
<path fill="none" stroke="#b7b7b7" style="stroke: var(--color1, #b7b7b7)" stroke-linejoin="round" stroke-linecap="round" stroke-miterlimit="4" stroke-width="2" d="M10.458 25.099l1.617-1.704c0.284-0.3 0.762-0.293 1.037 0.014l1.338 1.49c0.285 0.318 0.786 0.31 1.064-0.017l2.768-3.268c0.27-0.319 0.757-0.335 1.046-0.034l2.21 2.291"></path>
<path fill="none" stroke="#b7b7b7" style="stroke: var(--color1, #b7b7b7)" stroke-linejoin="round" stroke-linecap="round" stroke-miterlimit="4" stroke-width="2" d="M18.381 8c0.744 0 1.456 0.302 1.971 0.84l5.055 5.266c0.489 0.509 0.762 1.187 0.762 1.893v10.885c0.019 2.742-2.137 5.004-4.876 5.116l-10.567-0.001c-2.764-0.061-4.955-2.35-4.894-5.114v-14.009c0.065-2.719 2.293-4.887 5.013-4.875h7.536z"></path>
<path fill="none" stroke="#b7b7b7" style="stroke: var(--color1, #b7b7b7)" stroke-linejoin="round" stroke-linecap="round" stroke-miterlimit="4" stroke-width="2" d="M19.026 8.083v3.857c-0.001 1.882 1.522 3.41 3.405 3.414h3.652"></path>
<path fill="none" stroke="#b7b7b7" style="stroke: var(--color1, #b7b7b7)" stroke-linejoin="round" stroke-linecap="round" stroke-miterlimit="4" stroke-width="2" d="M12.34 18.923h-0.085M12.322 19.268c-0.192 0-0.348-0.156-0.348-0.348s0.156-0.348 0.348-0.348c0.192 0 0.348 0.156 0.348 0.348s-0.156 0.348-0.348 0.348z"></path>
</symbol>
<symbol id="icon-color_fonts" viewBox="0 0 32 32">
<path fill="#b7b7b7" style="fill: var(--color1, #b7b7b7)" d="M17.693 5.566c-0.757-0.752-1.98-0.748-2.733 0.010l-0.001 0.002-0.936 0.937c-0.737 0.73-1.731 1.14-2.768 1.141h-1.335c-0 0 0 0 0 0-1.068 0.001-1.933 0.866-1.933 1.933 0 0.024-0.001 0.049-0.003 0.073v1.257c0 1.041-0.413 2.035-1.144 2.772l-0.002 0.002-0.946 0.947c-0.751 0.758-0.745 1.98 0.013 2.731l0.004 0.004 0.934 0.935c0.732 0.735 1.144 1.73 1.144 2.77v1.341c0 1.067 0.865 1.932 1.932 1.932h1.333c1.037 0.002 2.033 0.411 2.769 1.144l0.002 0.002 0.927 0.927c0.010 0.009 0.020 0.019 0.030 0.030 0.759 0.737 1.972 0.727 2.719-0.026l0.004-0.004 0.935-0.934c0.736-0.732 1.732-1.144 2.771-1.144h1.34c1.066 0.001 1.932-0.863 1.935-1.929 0-0 0 0 0 0v-1.337c0-1.038 0.411-2.034 1.143-2.77l0.002-0.002 0.944-0.944c0.753-0.759 0.748-1.983-0.009-2.734l-0.939-0.939c-0.732-0.737-1.142-1.734-1.142-2.772v-1.333c0-1.067-0.866-1.933-1.933-1.933h-1.337c-1.038 0-2.035-0.41-2.771-1.143l-0.002-0.002-0.914-0.914c-0.011-0.010-0.021-0.020-0.031-0.030zM17.693 5.566c-0-0 0 0 0 0l0.289-0.289 0.417-0.42-0.707 0.707 0.001 0.001zM14.967 26.441v0c0 0-0-0 0 0zM5.988 9.505c0.045-2.133 1.787-3.848 3.93-3.849h1.334c0.51-0.001 0.998-0.202 1.361-0.561l0.929-0.93c-0 0 0-0 0 0 1.525-1.533 4.002-1.549 5.544-0.035 0.011 0.010 0.023 0.021 0.034 0.032l0.932 0.932c-0-0 0 0 0 0 0.361 0.359 0.85 0.561 1.36 0.561h1.337c2.172 0 3.933 1.761 3.933 3.933v1.333c0 0.51 0.201 0.999 0.561 1.361 0 0 0.001 0.001 0.001 0.001l0.929 0.929c0 0 0.001 0.001 0.001 0.001 1.532 1.523 1.547 3.994 0.042 5.537-0.016 0.017-0.032 0.033-0.048 0.048l-0.923 0.923c-0 0 0-0 0 0-0.359 0.361-0.561 0.849-0.561 1.359v1.34c-0.004 2.17-1.765 3.928-3.935 3.926h-1.339c-0.509 0-0.999 0.202-1.36 0.562l-0.929 0.928-0.71-0.704 0.707 0.707 0.002-0.002c-1.529 1.541-4.018 1.551-5.559 0.023 0.035 0.034 0.069 0.062 0.097 0.084 0.018 0.013 0.032 0.024 0.042 0.030 0.003 0.002 0.006 0.004 0.008 0.006 0.011 0.007 0.020 0.013 0.025 0.016-0.005-0.003-0.016-0.010-0.025-0.016-0.003-0.002-0.005-0.004-0.008-0.006-0.012-0.008-0.027-0.018-0.042-0.030-0.027-0.020-0.061-0.048-0.097-0.084-0.002-0.002-0.003-0.004-0.005-0.006-0.004-0.004-0.008-0.008-0.011-0.012-0.032-0.034-0.066-0.073-0.098-0.119-0.129-0.183-0.181-0.388-0.181-0.573 0 0.259 0.1 0.506 0.279 0.692l-0.931-0.93 0.705-0.709-0.707 0.707 0.002 0.002c-0.36-0.358-0.85-0.561-1.361-0.562h-1.331c-2.172 0-3.932-1.76-3.932-3.932v-1.341c0-0.508-0.202-0.997-0.561-1.358l-0.928-0.929 0.704-0.71-0.708 0.707 0.002 0.002c-1.541-1.529-1.55-4.015-0.024-5.556l0.004-0.004 0.016-0.016 0.93-0.932 0.71 0.705-0.708-0.707-0.002 0.002c0.36-0.363 0.563-0.853 0.563-1.362v-1.329c0-0.028 0.001-0.056 0.003-0.084zM13.542 27.843v0zM13.553 27.855l-0.011-0.012c0.004 0.004 0.008 0.008 0.011 0.012z"></path>
<path fill="#b7b7b7" style="fill: var(--color1, #b7b7b7)" d="M12.938 17.333c0-0.552 0.448-1 1-1h4.782c0.552 0 1 0.448 1 1s-0.448 1-1 1h-4.782c-0.552 0-1-0.448-1-1z"></path>
<path fill="#b7b7b7" style="fill: var(--color1, #b7b7b7)" d="M16.333 10.854c0.398 0 0.757 0.235 0.916 0.6l3.248 7.437c0.221 0.506-0.010 1.096-0.516 1.317s-1.096-0.010-1.317-0.516l-2.332-5.339-2.333 5.339c-0.221 0.506-0.811 0.737-1.317 0.516s-0.737-0.811-0.516-1.317l3.25-7.437c0.159-0.364 0.519-0.6 0.916-0.6z"></path>
</symbol>
<symbol id="icon-digital_stickers" viewBox="0 0 32 32">
<path fill="none" stroke="#b7b7b7" style="stroke: var(--color1, #b7b7b7)" stroke-linejoin="round" stroke-linecap="round" stroke-miterlimit="4" stroke-width="1.9469" d="M14.113 22.553l-0.916 0.153c-0.671 0.112-1.263-0.446-1.19-1.122l0.102-0.946c0.049-0.456 0.24-0.886 0.546-1.228l3.993-4.357c0.471-0.51 1.267-0.541 1.777-0.069l0.841 0.781c0.51 0.472 0.541 1.267 0.069 1.777l-3.949 4.309c-0.332 0.371-0.782 0.62-1.275 0.702z"></path>
<path fill="none" stroke="#b7b7b7" style="stroke: var(--color1, #b7b7b7)" stroke-linejoin="miter" stroke-linecap="butt" stroke-miterlimit="4" stroke-width="1.8444" d="M8.911 4.278c-1.528 0-2.767 1.239-2.767 2.767v18.444c0 1.528 1.239 2.767 2.767 2.767h13.496c1.528 0 2.767-1.239 2.767-2.767v-14.484c0-0.84-0.382-1.635-1.038-2.16l-4.951-3.96c-0.491-0.392-1.1-0.606-1.728-0.606h-8.545z"></path>
<path fill="none" stroke="#b7b7b7" style="stroke: var(--color1, #b7b7b7)" stroke-linejoin="round" stroke-linecap="round" stroke-miterlimit="4" stroke-width="1.9469" d="M18.131 4.667v3.754c-0.001 1.832 1.482 3.32 3.315 3.324h3.555"></path>
</symbol>
<symbol id="icon-general_fonts" viewBox="0 0 32 32">
<path fill="none" stroke="#b7b7b7" style="stroke: var(--color1, #b7b7b7)" stroke-linejoin="round" stroke-linecap="round" stroke-miterlimit="4" stroke-width="2" d="M18.176 21.387h-3.75M16.298 13.885v7.502M12.549 15.761v-1.25c0-0.345 0.28-0.626 0.626-0.626h6.25c0.346 0 0.626 0.281 0.626 0.626v1.25"></path>
<path fill="none" stroke="#b7b7b7" style="stroke: var(--color1, #b7b7b7)" stroke-linejoin="miter" stroke-linecap="butt" stroke-miterlimit="4" stroke-width="2" d="M7.333 3c-1.657 0-3 1.343-3 3v18.667c0 1.657 1.343 3 3 3h17.333c1.657 0 3-1.343 3-3v-14c0-1.657-1.343-3-3-3h-6.304c-0.323 0-0.626-0.156-0.814-0.419l-2.137-2.992c-0.563-0.788-1.472-1.256-2.441-1.256h-5.637z"></path>
</symbol>
<symbol id="icon-gifs" viewBox="0 0 32 32">
<path fill="none" stroke="#b7b7b7" style="stroke: var(--color1, #b7b7b7)" stroke-linejoin="miter" stroke-linecap="butt" stroke-miterlimit="4" stroke-width="2" d="M7.333 4.333h18.667c1.657 0 3 1.343 3 3v17.333c0 1.657-1.343 3-3 3h-18.667c-1.657 0-3-1.343-3-3v-17.333c0-1.657 1.343-3 3-3z"></path>
<path fill="#b7b7b7" style="fill: var(--color1, #b7b7b7)" d="M9.667 16.849v-0.828c0-1.974 1.266-3.25 3.276-3.25 0.781 0 1.51 0.198 2.052 0.521 0.536 0.318 0.88 0.755 0.88 1.229 0 0.5-0.359 0.854-0.87 0.854-0.208 0-0.385-0.057-0.542-0.146-0.422-0.224-0.734-0.641-1.349-0.641-0.854 0-1.26 0.51-1.26 1.552v0.698c0 1.031 0.406 1.568 1.198 1.568 0.578 0 0.974-0.333 0.974-0.818v-0.083h-0.193c-0.547 0-0.839-0.26-0.839-0.74 0-0.474 0.286-0.719 0.839-0.719h1.068c0.818 0 1.172 0.344 1.172 1.12v0.224c0 1.682-1.219 2.766-3.12 2.766-2.068 0-3.286-1.24-3.286-3.307zM16.906 12.938c0-0.557 0.448-0.953 1.089-0.953 0.635 0 1.083 0.396 1.083 0.953 0 0.563-0.448 0.958-1.083 0.958-0.641 0-1.089-0.396-1.089-0.958zM19.052 18.896c0 0.75-0.37 1.156-1.057 1.156s-1.057-0.406-1.057-1.156v-3.396c0-0.75 0.37-1.156 1.057-1.156s1.057 0.406 1.057 1.156v3.396zM22.76 18.896c0 0.75-0.37 1.156-1.052 1.156s-1.062-0.406-1.062-1.156v-2.922h-0.089c-0.547 0-0.849-0.276-0.849-0.771s0.302-0.792 0.849-0.792h0.089v-0.292c0-1.37 0.677-1.885 2.005-1.885 0.422 0 0.755 0.073 0.99 0.203 0.26 0.146 0.396 0.365 0.396 0.625 0 0.344-0.224 0.568-0.531 0.568-0.12 0-0.245-0.011-0.365-0.011-0.276 0-0.443 0.099-0.443 0.443v0.349h0.349c0.547 0 0.849 0.286 0.849 0.781s-0.302 0.781-0.849 0.781h-0.287v2.922z"></path>
</symbol>
<symbol id="icon-notifications" viewBox="0 0 32 32">
<path fill="#b7b7b7" style="fill: var(--color1, #b7b7b7)" d="M8.959 6.073c1.504-1.939 3.835-3.406 7.041-3.406s5.536 1.467 7.040 3.406c1.481 1.909 2.17 4.28 2.17 6.204 0 0.552-0.017 0.962-0.029 1.273-0.003 0.064-0.005 0.124-0.007 0.18-0.013 0.335-0.010 0.495 0.016 0.655 0.059 0.362 0.244 0.808 0.984 2.439 0.007 0.016 0.014 0.033 0.021 0.050 0.535 1.376 0.415 2.642-0.221 3.715-0.607 1.024-1.627 1.777-2.729 2.327-2.205 1.1-5.12 1.573-7.244 1.573s-5.040-0.473-7.245-1.573c-1.103-0.55-2.123-1.304-2.729-2.328-0.636-1.073-0.755-2.339-0.22-3.715 0.006-0.017 0.013-0.033 0.021-0.049 0.74-1.631 0.925-2.077 0.984-2.439 0.026-0.159 0.028-0.32 0.016-0.655-0.002-0.056-0.005-0.116-0.007-0.18-0.013-0.311-0.029-0.721-0.029-1.273 0-1.923 0.689-4.295 2.169-6.204zM10.494 7.263c-1.203 1.551-1.762 3.498-1.762 5.013 0 0.509 0.015 0.877 0.028 1.187 0.003 0.067 0.005 0.131 0.008 0.193 0.013 0.344 0.020 0.672-0.039 1.037-0.109 0.677-0.442 1.411-1.108 2.878l-0.013 0.029c-0.322 0.845-0.219 1.476 0.090 1.997 0.341 0.575 0.994 1.115 1.925 1.58 1.863 0.929 4.461 1.369 6.377 1.369s4.513-0.439 6.376-1.369c0.931-0.465 1.585-1.005 1.925-1.58 0.309-0.521 0.412-1.151 0.090-1.997l-0.013-0.029c-0.666-1.467-0.999-2.2-1.108-2.878-0.059-0.365-0.052-0.693-0.039-1.037 0.002-0.062 0.005-0.127 0.008-0.193 0.013-0.31 0.028-0.677 0.028-1.187 0-1.514-0.559-3.462-1.762-5.013-1.179-1.52-2.968-2.654-5.505-2.654s-4.326 1.134-5.505 2.654z"></path>
<path fill="#b7b7b7" style="fill: var(--color1, #b7b7b7)" d="M12.361 26.225c0.4-0.357 1.014-0.323 1.372 0.077 1.302 1.458 3.242 1.445 4.536-0.001 0.358-0.4 0.972-0.434 1.372-0.076s0.434 0.972 0.076 1.372c-2.059 2.3-5.35 2.331-7.432-0.001-0.357-0.4-0.323-1.014 0.077-1.372z"></path>
</symbol>
<symbol id="icon-categories" viewBox="0 0 32 32">
<path fill="none" stroke="#b7b7b7" style="stroke: var(--color1, #b7b7b7)" stroke-linejoin="miter" stroke-linecap="butt" stroke-miterlimit="4" stroke-width="2.1137" d="M19.662 3.526l7.533 2.018c1.691 0.453 2.695 2.192 2.242 3.883l-3.572 13.332c-0.453 1.691-2.192 2.695-3.883 2.242l-7.533-2.018c-1.691-0.453-2.695-2.192-2.242-3.883l3.572-13.332c0.453-1.691 2.192-2.695 3.883-2.242z"></path>
<path fill="#b7b7b7" style="fill: var(--color1, #b7b7b7)" d="M18.14 24.005v0.546c0 1.167-0.946 2.114-2.114 2.114h-7.799c-1.167 0-2.114-0.946-2.114-2.114v-13.802c0-1.167 0.946-2.114 2.114-2.114h6.967l0.587-2.114h-7.555c-2.335 0-4.227 1.893-4.227 4.227v13.802c0 2.335 1.893 4.227 4.227 4.227h7.799c2.335 0 4.227-1.893 4.227-4.227v-0.123l-2.114-0.423z"></path>
</symbol>
<symbol id="icon-hash_keys" viewBox="0 0 32 32">
<path fill="none" stroke="#b7b7b7" style="stroke: var(--color1, #b7b7b7)" stroke-linejoin="round" stroke-linecap="round" stroke-miterlimit="4" stroke-width="2" d="M23.217 9.396l-0.009-0.009c-0.283-0.283-0.481-0.638-0.537-1.034l-0.258-1.811c-0.086-0.594-0.471-1.1-1.015-1.358-0.372-0.175-0.752-0.333-1.14-0.472-0.566-0.202-1.196-0.118-1.677 0.243l-1.466 1.099c-0.319 0.24-0.708 0.352-1.107 0.352h-0.016c-0.398 0-0.789-0.112-1.107-0.352l-1.466-1.099c-0.481-0.361-1.111-0.445-1.677-0.243-0.388 0.139-0.768 0.296-1.14 0.472-0.544 0.257-0.93 0.763-1.014 1.358l-0.259 1.812c-0.057 0.396-0.254 0.75-0.536 1.033-0.003 0.003-0.007 0.005-0.009 0.009-0.283 0.283-0.638 0.48-1.034 0.537l-1.811 0.258c-0.595 0.084-1.1 0.47-1.358 1.013-0.176 0.372-0.333 0.754-0.472 1.14-0.202 0.567-0.118 1.197 0.243 1.679l1.105 1.474c0.23 0.305 0.35 0.677 0.352 1.059 0 0.029 0 0.057 0.001 0.086 0.003 0.385-0.121 0.759-0.352 1.068l-1.107 1.475c-0.361 0.48-0.445 1.111-0.243 1.676 0.139 0.388 0.296 0.769 0.472 1.142 0.257 0.544 0.763 0.929 1.358 1.015l1.812 0.259c0.396 0.056 0.75 0.253 1.033 0.536 0.003 0.003 0.005 0.007 0.009 0.009 0.281 0.281 0.479 0.637 0.536 1.033l0.259 1.812c0.084 0.594 0.47 1.1 1.013 1.357 0.372 0.177 0.754 0.335 1.14 0.474 0.567 0.202 1.197 0.118 1.679-0.244l1.465-1.098c0.319-0.24 0.71-0.352 1.109-0.35h0.013c0.4-0.001 0.79 0.11 1.109 0.35l1.463 1.098c0.481 0.361 1.112 0.446 1.677 0.244 0.388-0.139 0.769-0.297 1.142-0.472 0.544-0.258 0.929-0.763 1.015-1.358l0.261-1.824c0.055-0.377 0.231-0.727 0.501-0.998 0.019-0.021 0.039-0.040 0.058-0.060 0.271-0.275 0.623-0.453 1.004-0.507l1.825-0.261c0.594-0.086 1.1-0.471 1.357-1.015 0.176-0.371 0.335-0.752 0.473-1.14 0.202-0.566 0.118-1.196-0.244-1.677l-1.105-1.475c-0.228-0.305-0.35-0.676-0.351-1.057 0-0.029 0-0.057-0.001-0.084-0.003-0.387 0.121-0.761 0.353-1.070l1.105-1.474c0.361-0.481 0.446-1.111 0.244-1.677-0.139-0.388-0.297-0.768-0.472-1.14-0.258-0.544-0.763-0.93-1.358-1.014l-1.814-0.259c-0.394-0.057-0.75-0.253-1.031-0.536z"></path>
<path fill="none" stroke="#b7b7b7" style="stroke: var(--color1, #b7b7b7)" stroke-linejoin="round" stroke-linecap="round" stroke-miterlimit="4" stroke-width="2" d="M17.413 16.601c0 1.328 1.075 2.403 2.403 2.403s2.403-1.075 2.403-2.403c0-1.327-1.075-2.403-2.403-2.403h-0.005c-1.325 0.003-2.397 1.079-2.397 2.403z"></path>
<path fill="none" stroke="#b7b7b7" style="stroke: var(--color1, #b7b7b7)" stroke-linejoin="round" stroke-linecap="round" stroke-miterlimit="4" stroke-width="2" d="M17.35 16.605h-7.568v2.403"></path>
<path fill="none" stroke="#b7b7b7" style="stroke: var(--color1, #b7b7b7)" stroke-linejoin="round" stroke-linecap="round" stroke-miterlimit="4" stroke-width="2" d="M13.449 19.007v-2.403"></path>
</symbol>
<symbol id="icon-tutorial" viewBox="0 0 32 32">
<path fill="none" stroke="#b7b7b7" style="stroke: var(--color1, #b7b7b7)" stroke-linejoin="round" stroke-linecap="round" stroke-miterlimit="4" stroke-width="2" d="M28 16c0-6.627-5.372-12-12-12s-12 5.373-12 12c0 6.628 5.372 12 12 12s12-5.372 12-12z"></path>
<path fill="none" stroke="#b7b7b7" style="stroke: var(--color1, #b7b7b7)" stroke-linejoin="round" stroke-linecap="round" stroke-miterlimit="4" stroke-width="2" d="M19.79 16.001c0-1.030-5.251-4.308-5.847-3.719-0.597 0.59-0.654 6.781 0 7.427 0.653 0.645 5.847-2.689 5.847-3.708z"></path>
</symbol>
<symbol id="icon-attention" viewBox="0 0 32 32">
<path fill="none" stroke="#ff3b30" style="stroke: var(--color1, #ff3b30)" stroke-linejoin="round" stroke-linecap="round" stroke-miterlimit="4" stroke-width="2.4" d="M16 30.4c7.953 0 14.4-6.447 14.4-14.4s-6.447-14.4-14.4-14.4c-7.953 0-14.4 6.447-14.4 14.4s6.447 14.4 14.4 14.4z"></path>
<path fill="none" stroke="#ff3b30" style="stroke: var(--color1, #ff3b30)" stroke-linejoin="round" stroke-linecap="butt" stroke-miterlimit="4" stroke-width="3.6" d="M16 22.4h0.016v0.016h-0.016v-0.016z"></path>
<path fill="none" stroke="#ff3b30" style="stroke: var(--color1, #ff3b30)" stroke-linejoin="round" stroke-linecap="round" stroke-miterlimit="4" stroke-width="2.4" d="M16 16v-6.4"></path>
</symbol>
<symbol id="icon-check" viewBox="0 0 32 32">
<path fill="#e5e5e5" style="fill: var(--color1, #e5e5e5)" opacity="0.1" d="M32 16c0 8.837-7.163 16-16 16s-16-7.163-16-16c0-8.837 7.163-16 16-16s16 7.163 16 16z"></path>
<path fill="#e5e5e5" style="fill: var(--color1, #e5e5e5)" d="M14.202 22.444c0.308 0 0.551-0.136 0.723-0.394l6.395-10.033c0.129-0.208 0.179-0.365 0.179-0.53 0-0.408-0.272-0.68-0.68-0.68-0.286 0-0.451 0.1-0.63 0.38l-6.016 9.575-3.115-4.053c-0.186-0.244-0.358-0.344-0.623-0.344-0.415 0-0.709 0.286-0.709 0.695 0 0.172 0.072 0.351 0.215 0.537l3.509 4.447c0.222 0.272 0.437 0.401 0.752 0.401z"></path>
</symbol>
<symbol id="icon-regions" viewBox="0 0 32 32">
<path fill="#b7b7b7" style="fill: var(--color1, #b7b7b7)" d="M16.333 5c-6.076 0-11 4.924-11 11s4.924 11 11 11c6.076 0 11-4.924 11-11s-4.924-11-11-11zM3.333 16c0-7.18 5.82-13 13-13s13 5.82 13 13c0 7.18-5.82 13-13 13s-13-5.82-13-13z"></path>
<path fill="#b7b7b7" style="fill: var(--color1, #b7b7b7)" d="M14.111 7.863c-0.757 2.034-1.245 4.91-1.245 8.137s0.488 6.103 1.245 8.137c0.38 1.021 0.808 1.777 1.233 2.26 0.426 0.485 0.763 0.604 0.988 0.604s0.562-0.119 0.988-0.604c0.425-0.483 0.853-1.239 1.233-2.26 0.757-2.034 1.245-4.91 1.245-8.137s-0.488-6.103-1.245-8.137c-0.38-1.021-0.808-1.777-1.233-2.26-0.426-0.484-0.763-0.604-0.988-0.604s-0.562 0.119-0.988 0.604c-0.425 0.483-0.853 1.239-1.233 2.26zM13.843 4.282c0.642-0.73 1.481-1.282 2.49-1.282s1.847 0.552 2.489 1.282c0.644 0.731 1.178 1.733 1.606 2.883 0.859 2.309 1.371 5.433 1.371 8.834s-0.511 6.525-1.371 8.834c-0.428 1.151-0.962 2.152-1.606 2.883-0.642 0.73-1.481 1.282-2.489 1.282s-1.847-0.552-2.49-1.282c-0.644-0.731-1.178-1.733-1.606-2.883-0.86-2.309-1.371-5.433-1.371-8.834s0.511-6.525 1.371-8.834c0.428-1.151 0.962-2.152 1.606-2.883z"></path>
<path fill="#b7b7b7" style="fill: var(--color1, #b7b7b7)" d="M5.937 15.010c-0.484 0.427-0.604 0.763-0.604 0.988s0.119 0.562 0.604 0.988c0.483 0.425 1.239 0.853 2.26 1.233 2.034 0.757 4.91 1.245 8.137 1.245s6.103-0.488 8.137-1.245c1.021-0.38 1.777-0.808 2.26-1.233 0.485-0.426 0.604-0.763 0.604-0.988s-0.119-0.562-0.604-0.988c-0.483-0.425-1.239-0.853-2.26-1.233-2.034-0.757-4.91-1.245-8.137-1.245s-6.103 0.488-8.137 1.245c-1.021 0.38-1.777 0.808-2.26 1.233zM7.499 11.902c2.309-0.86 5.433-1.371 8.834-1.371s6.525 0.511 8.834 1.371c1.151 0.428 2.152 0.962 2.883 1.606 0.73 0.642 1.282 1.481 1.282 2.49s-0.552 1.847-1.282 2.489c-0.731 0.644-1.733 1.178-2.883 1.606-2.309 0.86-5.433 1.371-8.834 1.371s-6.525-0.511-8.834-1.371c-1.151-0.428-2.152-0.962-2.883-1.606-0.73-0.642-1.282-1.481-1.282-2.489s0.552-1.847 1.282-2.49c0.731-0.644 1.733-1.178 2.883-1.606z"></path>
</symbol>
<symbol id="icon-feedbacks" viewBox="0 0 32 32">
<path fill="none" stroke="#b7b7b7" style="stroke: var(--color1, #b7b7b7)" stroke-linejoin="round" stroke-linecap="round" stroke-miterlimit="4" stroke-width="2" d="M15.008 27.325l-1.895-1.902c-0.54-0.542-1.271-0.845-2.034-0.845h-1.424c-2.901 0-5.253-2.36-5.253-5.271v-9.252c0-2.911 2.352-5.269 5.253-5.269h13.496c2.901 0 5.251 2.359 5.251 5.269v9.252c0 2.911-2.351 5.271-5.251 5.271h-1.424c-0.763 0-1.495 0.303-2.034 0.845l-1.897 1.902c-0.769 0.773-2.016 0.773-2.787 0z"></path>
<path fill="none" stroke="#b7b7b7" style="stroke: var(--color1, #b7b7b7)" stroke-linejoin="round" stroke-linecap="round" stroke-miterlimit="4" stroke-width="2" d="M11.982 15.279c0.742 1.695 2.443 2.885 4.419 2.885 1.977 0 3.678-1.19 4.42-2.885"></path>
</symbol>
<symbol id="icon-tags" viewBox="0 0 32 32">
<path fill="#b7b7b7" style="fill: var(--color1, #b7b7b7)" d="M5.32 5.197c1.313-1.408 3.182-2.196 5.389-2.196h11.246c2.212 0 4.083 0.788 5.395 2.197 1.305 1.401 1.983 3.335 1.983 5.505v10.596c0 2.17-0.678 4.104-1.983 5.505-1.312 1.409-3.183 2.197-5.396 2.197h-11.245c-2.212 0-4.082-0.788-5.394-2.197-1.304-1.401-1.982-3.335-1.982-5.505v-10.596c0-2.171 0.682-4.105 1.987-5.505zM6.783 6.56c-0.903 0.969-1.45 2.386-1.45 4.142v10.596c0 1.757 0.545 3.174 1.446 4.142 0.894 0.96 2.212 1.56 3.93 1.56h11.245c1.719 0 3.038-0.6 3.932-1.56 0.902-0.968 1.447-2.385 1.447-4.142v-10.596c0-1.757-0.545-3.174-1.447-4.142-0.894-0.96-2.213-1.56-3.931-1.56h-11.246c-1.712 0-3.031 0.599-3.926 1.56z"></path>
<path fill="#b7b7b7" style="fill: var(--color1, #b7b7b7)" d="M14.558 9.867c0.548 0.069 0.936 0.57 0.866 1.118l-0.188 1.483h3.124l0.22-1.734c0.069-0.548 0.57-0.936 1.118-0.866s0.936 0.57 0.866 1.118l-0.188 1.483h1.391c0.552 0 1 0.448 1 1s-0.448 1-1 1h-1.644l-0.388 3.063h1.586c0.552 0 1 0.448 1 1s-0.448 1-1 1h-1.839l-0.22 1.734c-0.069 0.548-0.57 0.936-1.118 0.866s-0.936-0.57-0.866-1.118l0.188-1.483h-3.124l-0.22 1.734c-0.069 0.548-0.57 0.936-1.118 0.866s-0.936-0.57-0.866-1.118l0.188-1.483h-1.426c-0.552 0-1-0.448-1-1s0.448-1 1-1h1.68l0.388-3.063h-1.621c-0.552 0-1-0.448-1-1s0.448-1 1-1h1.874l0.22-1.734c0.069-0.548 0.57-0.936 1.118-0.866zM14.983 14.468l-0.388 3.063h3.124l0.388-3.063h-3.124z"></path>
</symbol>
<symbol id="icon-user_stories" viewBox="0 0 32 32">
<path fill="none" stroke="#b7b7b7" style="stroke: var(--color1, #b7b7b7)" stroke-linejoin="round" stroke-linecap="round" stroke-miterlimit="4" stroke-width="2" d="M9.66 19.709l3.991-5.187 4.552 3.576 3.905-5.040"></path>
<path fill="none" stroke="#b7b7b7" style="stroke: var(--color1, #b7b7b7)" stroke-linejoin="round" stroke-linecap="round" stroke-miterlimit="4" stroke-width="2" d="M26.661 8.164c1.415 0 2.563-1.147 2.563-2.563s-1.147-2.563-2.563-2.563c-1.415 0-2.563 1.147-2.563 2.563s1.147 2.563 2.563 2.563z"></path>
<path fill="none" stroke="#b7b7b7" style="stroke: var(--color1, #b7b7b7)" stroke-linejoin="round" stroke-linecap="round" stroke-miterlimit="4" stroke-width="2" d="M19.9 4.16h-9.69c-4.015 0-6.505 2.844-6.505 6.859v10.777c0 4.015 2.441 6.847 6.505 6.847h11.472c4.015 0 6.505-2.831 6.505-6.847v-9.385"></path>
</symbol>
<symbol id="icon-uploader" viewBox="0 0 32 32">
<path fill="none" stroke="#b7b7b7" style="stroke: var(--color1, #b7b7b7)" stroke-linejoin="round" stroke-linecap="round" stroke-miterlimit="4" stroke-width="2" d="M11.044 4.158h11.246c3.931 0 6.376 2.775 6.376 6.703v10.595c0 3.928-2.445 6.702-6.377 6.702h-11.245c-3.931 0-6.378-2.774-6.378-6.702v-10.595c0-3.928 2.458-6.703 6.378-6.703z"></path>
<path fill="none" stroke="#b7b7b7" style="stroke: var(--color1, #b7b7b7)" stroke-linejoin="round" stroke-linecap="round" stroke-miterlimit="4" stroke-width="2" d="M12.719 22.449c-0.891 0-1.614-0.723-1.614-1.614v-5.418c0-0.891 0.723-1.614 1.614-1.614s1.614 0.723 1.614 1.614v5.418c0 0.891-0.723 1.614-1.614 1.614z"></path>
<path fill="none" stroke="#b7b7b7" style="stroke: var(--color1, #b7b7b7)" stroke-linejoin="round" stroke-linecap="round" stroke-miterlimit="4" stroke-width="2" d="M20.617 22.448c-0.891 0-1.614-0.723-1.614-1.614v-9.35c0-0.891 0.723-1.614 1.614-1.614s1.614 0.723 1.614 1.614v9.35c0 0.891-0.723 1.614-1.614 1.614z"></path>
</symbol>
<symbol id="icon-languages" viewBox="0 0 32 32">
<path fill="#b7b7b7" style="fill: var(--color1, #b7b7b7)" d="M21.624 3c2.213 0 4.083 0.787 5.395 2.197 1.304 1.401 1.982 3.335 1.982 5.505v10.596c0 2.17-0.677 4.104-1.982 5.505-1.312 1.409-3.183 2.197-5.396 2.197h-11.245c-2.212 0-4.082-0.788-5.395-2.197-1.305-1.401-1.983-3.335-1.983-5.505v-10.596c0-2.171 0.683-4.105 1.988-5.505 1.313-1.408 3.182-2.197 5.389-2.197h11.246zM10.378 5c-1.712 0-3.031 0.599-3.927 1.56-0.903 0.969-1.451 2.386-1.451 4.142v10.596c0 1.757 0.545 3.174 1.447 4.142 0.894 0.96 2.213 1.56 3.931 1.56h11.245c1.719 0 3.037-0.6 3.931-1.56 0.901-0.968 1.447-2.385 1.447-4.142v-10.596c0-1.757-0.545-3.174-1.447-4.142-0.894-0.96-2.211-1.56-3.93-1.56h-11.246z"></path>
<path fill="#b7b7b7" style="fill: var(--color1, #b7b7b7)" d="M15.923 19.608c0.205-0.513 0.787-0.762 1.299-0.557 0.814 0.326 1.24 0.374 2.281 0.374 0.201 0 0.496-0.049 0.874-0.137 0.124-0.029 0.283-0.068 0.447-0.109 0.231-0.058 0.472-0.119 0.643-0.155 0.54-0.115 1.071 0.23 1.186 0.77s-0.231 1.071-0.771 1.186c-0.168 0.036-0.321 0.075-0.497 0.12-0.157 0.040-0.334 0.085-0.556 0.137-0.393 0.091-0.879 0.189-1.326 0.189-1.19 0-1.891-0.064-3.023-0.517-0.513-0.205-0.762-0.787-0.557-1.299z"></path>
<path fill="#b7b7b7" style="fill: var(--color1, #b7b7b7)" d="M19.275 14.234c0.376 0 0.72 0.211 0.891 0.546l3.267 6.397c0.251 0.492 0.055 1.094-0.436 1.345s-1.094 0.056-1.345-0.436l-2.376-4.652-2.375 4.652c-0.251 0.492-0.853 0.687-1.345 0.436s-0.687-0.853-0.436-1.345l3.265-6.397c0.171-0.335 0.515-0.546 0.891-0.546z"></path>
<path fill="#b7b7b7" style="fill: var(--color1, #b7b7b7)" d="M11.509 13.122c0.536-0.13 1.077 0.199 1.207 0.736 0.273 1.123 0.798 2.146 1.504 3.005 0.242 0.29 0.509 0.566 0.797 0.824 0.411 0.368 0.446 1 0.078 1.411s-1.001 0.447-1.413 0.078c-0.357-0.32-0.693-0.667-1.001-1.038l-0.004-0.004c-0.893-1.086-1.557-2.381-1.904-3.805-0.131-0.537 0.199-1.078 0.736-1.208z"></path>
<path fill="#b7b7b7" style="fill: var(--color1, #b7b7b7)" d="M16.123 10.623c0.499-0.237 1.096-0.026 1.333 0.473 0.059 0.123 0.078 0.231 0.083 0.262 0.009 0.047 0.013 0.089 0.016 0.116 0.005 0.055 0.005 0.107 0.005 0.15-0 0.088-0.006 0.189-0.016 0.297-0.020 0.219-0.059 0.505-0.13 0.839-0.142 0.667-0.411 1.552-0.902 2.497-0.993 1.91-2.884 4.040-6.362 5.104-0.528 0.162-1.087-0.135-1.249-0.663s0.135-1.088 0.663-1.25c2.897-0.887 4.393-2.614 5.173-4.115 0.395-0.76 0.609-1.469 0.72-1.99 0.055-0.26 0.083-0.467 0.095-0.602 0.004-0.042 0.006-0.074 0.007-0.096-0.050-0.415 0.166-0.833 0.564-1.022zM16.513 11.544l-0.042 0.020h0.003l0.043-0.020h-0.004z"></path>
<path fill="#b7b7b7" style="fill: var(--color1, #b7b7b7)" d="M8.458 11.526c0-0.552 0.448-1 1-1h9.265c0.552 0 1 0.448 1 1s-0.448 1-1 1h-9.265c-0.552 0-1-0.448-1-1z"></path>
<path fill="#b7b7b7" style="fill: var(--color1, #b7b7b7)" d="M13.852 9.37c0.552 0 1 0.448 1 1v1.153c0 0.552-0.448 1-1 1s-1-0.448-1-1v-1.153c0-0.552 0.448-1 1-1z"></path>
</symbol>
<symbol id="icon-presets" viewBox="0 0 32 32">
<path fill="none" stroke="#b7b7b7" style="stroke: var(--color1, #b7b7b7)" stroke-linejoin="round" stroke-linecap="round" stroke-miterlimit="4" stroke-width="2" d="M8.561 10.827h8.047c2.813 0 4.563 1.985 4.563 4.795v7.583c0 2.81-1.75 4.795-4.564 4.795h-8.046c-2.813 0-4.561-1.985-4.561-4.795v-7.583c0-2.81 1.758-4.795 4.561-4.795z"></path>
<path fill="none" stroke="#b7b7b7" style="stroke: var(--color1, #b7b7b7)" stroke-linejoin="round" stroke-linecap="round" stroke-miterlimit="4" stroke-width="2" d="M21.177 16.922l-5.184 4.247M19.701 13.323l-7.764 6.372M16.878 10.827l-5.961 4.895"></path>
<path fill="none" stroke="#b7b7b7" style="stroke: var(--color1, #b7b7b7)" stroke-linejoin="round" stroke-linecap="round" stroke-miterlimit="4" stroke-width="2" d="M23.436 4h-8.047c-2.803 0-4.561 1.985-4.561 4.795v7.583c0 2.81 1.749 4.795 4.561 4.795h8.046c2.814 0 4.564-1.985 4.564-4.795v-7.583c0-2.81-1.75-4.795-4.563-4.795z"></path>
</symbol>
<symbol id="icon-arrow_drop_down1" viewBox="0 0 64 32">
<path fill="#fff" style="fill: var(--color1, #fff)" d="M32 0l32 32h-64l32-32z"></path>
</symbol>
<symbol id="icon-arrow_back" viewBox="0 0 32 32">
<path d="M11 16c0 0.23 0.083 0.433 0.258 0.608l7.309 7.143c0.157 0.166 0.36 0.249 0.599 0.249 0.479 0 0.848-0.359 0.848-0.839 0-0.24-0.101-0.442-0.249-0.599l-6.71-6.562 6.71-6.562c0.147-0.157 0.249-0.369 0.249-0.599 0-0.479-0.369-0.839-0.848-0.839-0.24 0-0.442 0.083-0.599 0.24l-7.309 7.152c-0.175 0.166-0.258 0.378-0.258 0.608z"></path>
</symbol>
<symbol id="icon-bird" viewBox="0 0 40 32">
<path stroke-linejoin="miter" stroke-linecap="butt" stroke-miterlimit="4" stroke-width="4" d="M14.751 27.251c-0.512 0-1.024-0.196-1.414-0.586l-8.75-8.75c-0.782-0.782-0.782-2.046 0-2.828s2.046-0.782 2.828 0l7.336 7.336 17.836-17.836c0.782-0.782 2.046-0.782 2.828 0s0.782 2.046 0 2.828l-19.25 19.25c-0.39 0.39-0.902 0.586-1.414 0.586z"></path>
</symbol>
<symbol id="icon-whats_new" viewBox="0 0 32 32">
<path fill="none" stroke="#b7b7b7" style="stroke: var(--color1, #b7b7b7)" stroke-linejoin="round" stroke-linecap="round" stroke-miterlimit="4" stroke-width="2" d="M16.662 4.925h-6.573c-3.758 0-6.088 2.662-6.088 6.419v10.086c0 3.758 2.285 6.409 6.088 6.409h10.732c3.758 0 6.089-2.65 6.089-6.409v-6.287"></path>
<path fill="none" stroke="#b7b7b7" style="stroke: var(--color1, #b7b7b7)" stroke-linejoin="round" stroke-linecap="round" stroke-miterlimit="4" stroke-width="2" d="M24.859 4.161c1.735 0 3.141 1.406 3.141 3.141s-1.406 3.141-3.141 3.141c-1.734 0-3.141-1.406-3.141-3.141s1.406-3.141 3.141-3.141z"></path>
<path fill="none" stroke="#b7b7b7" style="stroke: var(--color1, #b7b7b7)" stroke-linejoin="round" stroke-linecap="round" stroke-miterlimit="4" stroke-width="2" d="M11.148 15.675c-1.336 0.431-1.812 1.886-1.405 3.16 0.656 2.040 3.469 3.573 3.469 3.573s2.835-1.555 3.469-3.573c0.407-1.274-0.073-2.73-1.409-3.16-0.703-0.219-1.469-0.091-2.060 0.348-0.592-0.442-1.36-0.572-2.064-0.348z"></path>
</symbol>
<symbol id="icon-color_fonts" viewBox="0 0 33 32">
<path  d="M8.417 23.478v-1.682h16.823v1.682h-16.823zM11.975 18.852l4.448-10.935h0.809l4.448 10.935h-1.016l-1.213-3.060h-5.302l-1.223 3.060h-0.951zM14.447 14.982h4.698l-2.274-5.72h-0.116l-2.307 5.72z"></path>
</symbol>
<symbol id="icon-font" viewBox="0 0 33 32">
<path  d="M5.448 21.599l4.698-12.693h1.343l4.772 12.693h-1.37l-1.299-3.631h-5.549l-1.274 3.631h-1.321zM8.469 16.851h4.723l-2.322-6.538h-0.079l-2.322 6.538zM21.252 21.926c-0.93 0-1.66-0.247-2.192-0.742s-0.797-1.161-0.797-2.001c0-0.895 0.318-1.621 0.953-2.178s1.472-0.835 2.51-0.835c0.441 0 0.874 0.046 1.298 0.137s0.785 0.222 1.084 0.392v-0.694c0-0.822-0.205-1.444-0.616-1.867s-1.015-0.635-1.812-0.635c-0.431 0-0.836 0.075-1.214 0.226s-0.755 0.383-1.13 0.696l-0.785-0.704c0.454-0.428 0.933-0.742 1.437-0.942s1.070-0.3 1.7-0.3c1.191 0 2.080 0.306 2.669 0.919s0.883 1.524 0.883 2.734v5.505h-1.124v-1.284h-0.121c-0.294 0.525-0.671 0.918-1.131 1.18s-0.998 0.392-1.611 0.392zM21.277 20.917c0.813 0 1.489-0.305 2.026-0.916s0.806-1.38 0.806-2.309c-0.282-0.171-0.623-0.303-1.023-0.396s-0.793-0.14-1.178-0.14c-0.781 0-1.389 0.178-1.825 0.535s-0.654 0.854-0.654 1.492c0 0.525 0.168 0.945 0.504 1.261s0.785 0.473 1.345 0.473z"></path>
</symbol>
<symbol id="icon-gif" viewBox="0 0 33 32">
<path  d="M12.688 17.796h1.042c0.255 0 0.472-0.090 0.652-0.269s0.269-0.397 0.269-0.652v-0.921h-0.801v0.921c0 0.027-0.013 0.053-0.040 0.080s-0.053 0.040-0.080 0.040h-1.042c-0.027 0-0.053-0.013-0.080-0.040s-0.040-0.053-0.040-0.080v-2.083c0-0.027 0.010-0.053 0.030-0.080s0.043-0.040 0.070-0.040h1.963c-0.027-0.228-0.123-0.419-0.289-0.572s-0.37-0.229-0.612-0.229h-1.042c-0.255 0-0.472 0.090-0.652 0.269s-0.269 0.397-0.269 0.652v2.083c0 0.255 0.090 0.472 0.269 0.652s0.397 0.269 0.652 0.269zM15.933 17.796h0.801v-3.926h-0.801v3.926zM18.016 17.796h0.801v-1.562h1.562v-0.801h-1.562v-0.761h2.083v-0.801h-2.885v3.926zM9.683 24.167c-0.479 0-0.88-0.161-1.201-0.482s-0.482-0.721-0.482-1.201v-13.301c0-0.479 0.161-0.88 0.482-1.201s0.721-0.482 1.201-0.482h13.301c0.479 0 0.88 0.161 1.201 0.482s0.482 0.721 0.482 1.201v13.301c0 0.479-0.161 0.88-0.482 1.201s-0.721 0.482-1.201 0.482h-13.301zM9.683 23.125h13.301c0.16 0 0.307-0.067 0.441-0.2s0.2-0.28 0.2-0.441v-13.301c0-0.16-0.067-0.307-0.2-0.441s-0.28-0.2-0.441-0.2h-13.301c-0.16 0-0.307 0.067-0.441 0.2s-0.2 0.28-0.2 0.441v13.301c0 0.16 0.067 0.307 0.2 0.441s0.28 0.2 0.441 0.2z"></path>
</symbol>
<symbol id="icon-photo" viewBox="0 0 33 32">
<path d="M9.901 24.74c-0.685 0-1.269-0.241-1.751-0.723s-0.723-1.066-0.723-1.751v-12.865c0-0.685 0.241-1.269 0.723-1.751s1.066-0.723 1.751-0.723h12.865c0.685 0 1.269 0.241 1.751 0.723s0.723 1.066 0.723 1.751v12.865c0 0.685-0.241 1.269-0.723 1.751s-1.066 0.723-1.751 0.723h-12.865zM9.901 23.75h12.865c0.407 0 0.756-0.146 1.048-0.437s0.437-0.64 0.437-1.048v-12.865c0-0.407-0.146-0.756-0.437-1.048s-0.64-0.437-1.048-0.437h-12.865c-0.407 0-0.756 0.146-1.048 0.437s-0.437 0.64-0.437 1.048v12.865c0 0.407 0.146 0.756 0.437 1.048s0.64 0.437 1.048 0.437zM11.595 20.781l2.759-2.759 1.819 1.795 2.139-2.689 2.931 3.654h-9.648zM12.87 13.359c-0.417 0-0.769-0.143-1.055-0.429s-0.429-0.638-0.429-1.055 0.143-0.769 0.429-1.055c0.286-0.286 0.638-0.429 1.055-0.429s0.769 0.143 1.055 0.429c0.286 0.286 0.429 0.638 0.429 1.055s-0.143 0.769-0.429 1.055c-0.286 0.286-0.638 0.429-1.055 0.429z"></path>
</symbol>
<symbol id="icon-sticker" viewBox="0 0 33 32">
<path  d="M17.323 17.318h0.99v-2.969h2.969v-0.99h-2.969v-2.969h-0.99v2.969h-2.969v0.99h2.969v2.969zM12.489 20.781c-0.455 0-0.836-0.153-1.141-0.458s-0.458-0.685-0.458-1.141v-10.657c0-0.455 0.153-0.836 0.458-1.141s0.685-0.458 1.141-0.458h10.657c0.455 0 0.836 0.153 1.141 0.458s0.458 0.685 0.458 1.141v10.657c0 0.455-0.153 0.836-0.458 1.141s-0.685 0.458-1.141 0.458h-10.657zM12.489 19.792h10.657c0.152 0 0.292-0.063 0.419-0.19s0.19-0.266 0.19-0.419v-10.657c0-0.152-0.063-0.292-0.19-0.419s-0.266-0.19-0.419-0.19h-10.657c-0.152 0-0.292 0.063-0.419 0.19s-0.19 0.266-0.19 0.419v10.657c0 0.152 0.063 0.292 0.19 0.419s0.266 0.19 0.419 0.19zM9.52 23.75c-0.455 0-0.836-0.153-1.141-0.458s-0.458-0.685-0.458-1.141v-11.647h0.99v11.647c0 0.152 0.063 0.292 0.19 0.419s0.266 0.19 0.419 0.19h11.647v0.99h-11.647z"></path>
</symbol>
<symbol id="icon-delete" viewBox="0 0 32 32">
<path d="M25.303 11.533c0.661 0.048 1.157 0.623 1.109 1.284l-0.816 11.169c-0.215 2.937-2.66 5.212-5.607 5.212h-7.991c-2.854 0-5.239-2.135-5.581-4.94l-0.027-0.273-0.815-11.168-0.003-0.122c0.017-0.608 0.492-1.116 1.112-1.161s1.164 0.388 1.27 0.987l0.014 0.122 0.816 11.168 0.038 0.311c0.262 1.531 1.594 2.677 3.176 2.677h7.991c1.689-0 3.090-1.304 3.214-2.987v-0.001l0.815-11.168 0.016-0.122c0.105-0.599 0.65-1.032 1.27-0.987z"></path>
<path d="M27.012 7.336l0.122 0.007c0.605 0.061 1.078 0.572 1.078 1.194s-0.473 1.133-1.078 1.194l-0.122 0.007h-22.039c-0.663 0-1.201-0.538-1.201-1.201s0.538-1.201 1.201-1.201h22.039z"></path>
<path d="M18.744 2.799c1.214 0 2.288 0.765 2.694 1.893l0.072 0.23 0.017 0.072 0.671 3.301 0.018 0.122c0.060 0.605-0.347 1.169-0.956 1.293s-1.203-0.237-1.384-0.818l-0.030-0.12-0.66-3.246c-0.059-0.193-0.238-0.327-0.441-0.327h-5.5c-0.205-0.001-0.384 0.13-0.445 0.322l-0.654 3.25c-0.131 0.649-0.763 1.069-1.413 0.939s-1.069-0.763-0.939-1.413l0.664-3.301 0.017-0.074 0.073-0.232c0.408-1.13 1.484-1.893 2.701-1.891v-0.001h5.496z"></path>
<path d="M12.261 21.72v-6.012c0-0.663 0.538-1.2 1.201-1.2s1.2 0.538 1.2 1.2v6.012c-0 0.663-0.538 1.199-1.2 1.199s-1.2-0.537-1.201-1.199zM16.769 21.72v-6.012c0-0.663 0.538-1.2 1.201-1.2s1.199 0.538 1.199 1.2v6.012c-0 0.662-0.537 1.199-1.199 1.199s-1.2-0.537-1.201-1.199z"></path>
</symbol>
<symbol id="icon-delete-secondary" viewBox="0 0 32 32">
<path d="M11.159 7.944c0.055-0.894 0.31-2.172 1.207-3.203 0.949-1.093 2.357-1.647 4.184-1.647 1.828 0 3.235 0.554 4.185 1.647 0.897 1.031 1.151 2.309 1.206 3.203h5.006c0.533 0 0.966 0.433 0.966 0.966s-0.433 0.966-0.966 0.966h-20.792c-0.533 0-0.966-0.433-0.966-0.966s0.433-0.966 0.966-0.966h5.004zM20.007 7.944c-0.049-0.582-0.22-1.356-0.736-1.945-0.566-0.646-1.482-0.973-2.72-0.973-1.237 0-2.152 0.327-2.72 0.973-0.517 0.589-0.688 1.364-0.736 1.945h6.913z"></path>
<path d="M16.538 28.822c-3.809 0-6.155-0.66-7.604-2.138-2.044-2.084-1.977-5.501-1.885-10.227l0-0.009c0.022-1.108 0.045-2.301 0.045-3.583 0-0.533 0.433-0.965 0.966-0.965s0.966 0.433 0.966 0.965c0 1.295-0.023 2.501-0.046 3.621-0.086 4.419-0.143 7.338 1.334 8.844 1.043 1.065 3.021 1.56 6.226 1.56 3.211 0 5.193-0.498 6.241-1.565 1.486-1.515 1.43-4.451 1.347-8.896l-0.002-0.124c-0.020-1.067-0.041-2.214-0.041-3.44 0-0.533 0.433-0.965 0.966-0.965s0.966 0.433 0.966 0.965c0 1.26 0.022 2.434 0.044 3.527l0 0.010c0.089 4.75 0.153 8.184-1.9 10.276-1.454 1.482-3.804 2.143-7.619 2.143z"></path>
</symbol>
<symbol id="icon-edit" viewBox="0 0 32 32">
<path stroke="#fff" style="stroke: var(--color2, #fff)" stroke-linejoin="round" stroke-linecap="round" stroke-miterlimit="4" stroke-width="1.931" d="M17.167 25.114h8.209"></path>
<path stroke="#fff" style="stroke: var(--color2, #fff)" stroke-linejoin="round" stroke-linecap="round" stroke-miterlimit="4" stroke-width="1.931" d="M20.672 6.255c-1.73-1.298-4.184-0.947-5.482 0.781 0 0-6.454 8.597-8.692 11.58-2.239 2.984-0.121 6.681-0.121 6.681s4.176 0.96 6.383-1.981c2.208-2.94 8.692-11.58 8.692-11.58 1.298-1.729 0.949-4.184-0.78-5.482z"></path>
<path stroke="#fff" style="stroke: var(--color2, #fff)" stroke-linejoin="round" stroke-linecap="round" stroke-miterlimit="4" stroke-width="1.931" d="M13.523 9.284l6.262 4.7"></path>
</symbol>
<symbol id="icon-arrow_drop_down" viewBox="0 0 32 32">
<path  d="M16 20l-6.667-6.667h13.333l-6.667 6.667z"></path>
</symbol>
<symbol id="icon-block" viewBox="0 0 32 32">
<path d="M16 32c-2.213 0-4.293-0.42-6.24-1.26s-3.64-1.98-5.080-3.42c-1.44-1.44-2.58-3.133-3.42-5.080s-1.26-4.027-1.26-6.24c0-2.213 0.42-4.293 1.26-6.24s1.98-3.64 3.42-5.080c1.44-1.44 3.133-2.58 5.080-3.42s4.027-1.26 6.24-1.26c2.213 0 4.293 0.42 6.24 1.26s3.64 1.98 5.080 3.42c1.44 1.44 2.58 3.133 3.42 5.080s1.26 4.027 1.26 6.24c0 2.213-0.42 4.293-1.26 6.24s-1.98 3.64-3.42 5.080c-1.44 1.44-3.133 2.58-5.080 3.42s-4.027 1.26-6.24 1.26zM16 28.8c1.44 0 2.827-0.233 4.16-0.7s2.56-1.14 3.68-2.020l-17.92-17.92c-0.88 1.12-1.553 2.347-2.020 3.68s-0.7 2.72-0.7 4.16c0 3.573 1.24 6.6 3.72 9.080s5.507 3.72 9.080 3.72zM26.080 23.84c0.88-1.12 1.553-2.347 2.020-3.68s0.7-2.72 0.7-4.16c0-3.573-1.24-6.6-3.72-9.080s-5.507-3.72-9.080-3.72c-1.44 0-2.827 0.233-4.16 0.7s-2.56 1.14-3.68 2.020l17.92 17.92z"></path>
</symbol>
<symbol id="icon-close" viewBox="0 0 32 32">
<path  d="M16.001 19.232l-12.391 12.391-3.232-3.232 12.391-12.391-12.391-12.391 3.232-3.232 12.391 12.391 12.391-12.391 3.232 3.232-12.391 12.391 12.391 12.391-3.232 3.232-12.391-12.391z"></path>
</symbol>
<symbol id="icon-redo" viewBox="0 0 34 32">
<path d="M12.399 31.704c-3.359 0-6.265-1.095-8.719-3.285s-3.68-4.922-3.68-8.195c0-3.273 1.227-6.005 3.68-8.195s5.36-3.285 8.719-3.285h17.203l-7.118-7.118 1.625-1.625 9.891 9.891-9.891 9.891-1.625-1.625 7.118-7.118h-17.203c-2.735 0-5.102 0.868-7.102 2.605s-3 3.93-3 6.579c0 2.649 1 4.842 3 6.579s4.368 2.605 7.102 2.605h15.154v2.296h-15.154z"></path>
</symbol>
<symbol id="icon-undo" viewBox="0 0 34 32">
<path d="M6.447 31.704v-2.296h15.154c2.735 0 5.102-0.868 7.103-2.605s3-3.93 3-6.579-1-4.842-3-6.579c-2-1.737-4.368-2.605-7.103-2.605h-17.203l7.118 7.118-1.625 1.625-9.891-9.891 9.891-9.891 1.625 1.625-7.118 7.118h17.203c3.359 0 6.265 1.095 8.719 3.285s3.68 4.922 3.68 8.195c0 3.273-1.227 6.005-3.68 8.195s-5.36 3.285-8.719 3.285h-15.154z"></path>
</symbol>
<symbol id="icon-lock_open" viewBox="0 0 32 32">
<path d="M8.823 12h11.18v-2.667c0-1.111-0.389-2.056-1.167-2.833s-1.722-1.167-2.833-1.167c-1.111 0-2.056 0.389-2.833 1.167s-1.167 1.722-1.167 2.833h-1.333c0-1.485 0.518-2.746 1.553-3.781s2.295-1.553 3.781-1.553c1.485 0 2.746 0.518 3.781 1.553s1.552 2.295 1.552 3.781v2.667h1.846c0.597 0 1.105 0.21 1.524 0.629s0.629 0.928 0.629 1.524v11.692c0 0.596-0.21 1.105-0.629 1.524s-0.928 0.629-1.524 0.629h-14.359c-0.597 0-1.105-0.21-1.524-0.629s-0.629-0.928-0.629-1.524v-11.692c0-0.597 0.21-1.105 0.629-1.524s0.928-0.629 1.524-0.629zM8.823 26.667h14.359c0.239 0 0.436-0.077 0.59-0.231s0.231-0.35 0.231-0.59v-11.692c0-0.239-0.077-0.436-0.231-0.59s-0.35-0.231-0.59-0.231h-14.359c-0.239 0-0.436 0.077-0.59 0.231s-0.231 0.35-0.231 0.59v11.692c0 0.239 0.077 0.436 0.231 0.59s0.35 0.231 0.59 0.231zM16.002 22c0.562 0 1.036-0.193 1.422-0.578s0.578-0.859 0.578-1.422c0-0.562-0.193-1.036-0.578-1.422s-0.859-0.578-1.422-0.578c-0.562 0-1.036 0.193-1.422 0.578s-0.578 0.859-0.578 1.422c0 0.562 0.193 1.036 0.578 1.422s0.859 0.578 1.422 0.578z"></path>
</symbol>
<symbol id="icon-lock_close" viewBox="0 0 32 32">
<path d="M8.823 28c-0.597 0-1.105-0.21-1.524-0.629s-0.629-0.928-0.629-1.524v-11.692c0-0.597 0.21-1.105 0.629-1.524s0.928-0.629 1.524-0.629h1.846v-2.667c0-1.485 0.518-2.746 1.553-3.781s2.295-1.553 3.781-1.553c1.485 0 2.746 0.518 3.781 1.553s1.552 2.295 1.552 3.781v2.667h1.846c0.597 0 1.105 0.21 1.524 0.629s0.629 0.928 0.629 1.524v11.692c0 0.596-0.21 1.105-0.629 1.524s-0.928 0.629-1.524 0.629h-14.359zM16.002 22c0.562 0 1.036-0.193 1.422-0.578s0.578-0.859 0.578-1.422c0-0.562-0.193-1.036-0.578-1.422s-0.859-0.578-1.422-0.578c-0.562 0-1.036 0.193-1.422 0.578s-0.578 0.859-0.578 1.422c0 0.562 0.193 1.036 0.578 1.422s0.859 0.578 1.422 0.578zM12.002 12h8v-2.667c0-1.111-0.389-2.056-1.167-2.833s-1.722-1.167-2.833-1.167c-1.111 0-2.056 0.389-2.833 1.167s-1.167 1.722-1.167 2.833v2.667z"></path>
</symbol>
<symbol id="icon-minus" viewBox="0 0 32 32">
<path d="M30.559 17.211h-29.154c-0.679 0-1.229-0.55-1.229-1.229s0.55-1.229 1.229-1.229h29.154c0.679 0 1.229 0.55 1.229 1.229s-0.55 1.229-1.229 1.229z"></path>
</symbol>
<symbol id="icon-fluent" viewBox="0 0 32 32">
<path d="M11.311 5.276c-0.181 0.185-0.284 0.434-0.285 0.693s0.098 0.509 0.277 0.697c0.179 0.188 0.424 0.298 0.683 0.309s0.512-0.080 0.706-0.253l2.628-2.508c0.186-0.178 0.434-0.277 0.691-0.276s0.505 0.1 0.691 0.278l2.608 2.504c0.094 0.096 0.206 0.173 0.329 0.225s0.257 0.079 0.391 0.079c0.134-0 0.267-0.028 0.391-0.081s0.235-0.13 0.328-0.227c0.093-0.097 0.166-0.212 0.213-0.337s0.070-0.26 0.065-0.394-0.037-0.266-0.095-0.388c-0.057-0.122-0.138-0.23-0.239-0.32l-2.608-2.504c-0.558-0.536-1.301-0.835-2.074-0.836s-1.517 0.296-2.076 0.83l-2.624 2.508zM6.725 12.69c0.173-0.194 0.263-0.447 0.253-0.706s-0.121-0.504-0.309-0.683c-0.188-0.179-0.437-0.278-0.697-0.277s-0.508 0.104-0.693 0.285l-2.502 2.614c-0.534 0.558-0.831 1.301-0.831 2.073s0.298 1.515 0.831 2.073l2.502 2.62c0.091 0.095 0.199 0.171 0.319 0.224s0.25 0.082 0.381 0.085c0.131 0.003 0.262-0.020 0.384-0.068s0.234-0.119 0.329-0.209c0.095-0.091 0.171-0.199 0.224-0.319s0.082-0.25 0.085-0.381c0.003-0.131-0.020-0.262-0.067-0.384s-0.119-0.234-0.209-0.329l-2.502-2.62c-0.177-0.186-0.276-0.433-0.276-0.69s0.099-0.504 0.276-0.69l2.502-2.618zM12.691 25.276c-0.094-0.096-0.206-0.172-0.33-0.224s-0.257-0.078-0.391-0.077c-0.134 0.001-0.267 0.029-0.39 0.082s-0.234 0.131-0.327 0.228c-0.093 0.097-0.165 0.212-0.212 0.337s-0.069 0.259-0.064 0.393c0.005 0.134 0.038 0.266 0.095 0.387s0.139 0.23 0.239 0.319l2.628 2.512c0.56 0.535 1.304 0.833 2.079 0.831s1.518-0.302 2.075-0.839l2.6-2.508c0.1-0.090 0.181-0.198 0.238-0.32s0.089-0.254 0.094-0.388c0.005-0.134-0.017-0.268-0.065-0.394s-0.121-0.24-0.214-0.337c-0.093-0.097-0.205-0.174-0.329-0.226s-0.257-0.080-0.391-0.080c-0.134-0-0.268 0.027-0.391 0.079s-0.236 0.129-0.329 0.226l-2.6 2.508c-0.186 0.179-0.434 0.28-0.693 0.28s-0.507-0.099-0.693-0.278l-2.63-2.512zM26.723 11.306c-0.091-0.095-0.2-0.171-0.32-0.224s-0.25-0.081-0.381-0.084c-0.131-0.003-0.262 0.021-0.384 0.068s-0.234 0.119-0.329 0.21c-0.095 0.091-0.171 0.2-0.224 0.32s-0.081 0.25-0.084 0.381c-0.003 0.131 0.021 0.262 0.068 0.384s0.119 0.234 0.21 0.329l2.516 2.62c0.179 0.186 0.279 0.435 0.279 0.693s-0.1 0.507-0.279 0.693l-2.516 2.608c-0.184 0.191-0.285 0.447-0.28 0.712s0.115 0.518 0.306 0.702c0.191 0.184 0.447 0.285 0.712 0.28s0.517-0.115 0.702-0.306l2.514-2.608c0.538-0.559 0.839-1.304 0.839-2.080s-0.3-1.521-0.837-2.080l-2.512-2.62zM12.999 10c-0.796 0-1.559 0.316-2.121 0.879s-0.879 1.326-0.879 2.121v6c0 0.796 0.316 1.559 0.879 2.121s1.326 0.879 2.121 0.879h6c0.796 0 1.559-0.316 2.121-0.879s0.879-1.326 0.879-2.121v-6c0-0.796-0.316-1.559-0.879-2.121s-1.326-0.879-2.121-0.879h-6zM11.999 13c0-0.265 0.105-0.52 0.293-0.707s0.442-0.293 0.707-0.293h6c0.265 0 0.52 0.105 0.707 0.293s0.293 0.442 0.293 0.707v6c0 0.265-0.105 0.52-0.293 0.707s-0.442 0.293-0.707 0.293h-6c-0.265 0-0.52-0.105-0.707-0.293s-0.293-0.442-0.293-0.707v-6z"></path>
<path stroke-linejoin="miter" stroke-linecap="butt" stroke-miterlimit="4" stroke-width="0.8" d="M11.311 5.276c-0.181 0.185-0.284 0.434-0.285 0.693s0.098 0.509 0.277 0.697c0.179 0.188 0.424 0.298 0.683 0.309s0.512-0.080 0.706-0.253l2.628-2.508c0.186-0.178 0.434-0.277 0.691-0.276s0.505 0.1 0.691 0.278l2.608 2.504c0.094 0.096 0.206 0.173 0.329 0.225s0.257 0.079 0.391 0.079c0.134-0 0.267-0.028 0.391-0.081s0.235-0.13 0.328-0.227c0.093-0.097 0.166-0.212 0.213-0.337s0.070-0.26 0.065-0.394-0.037-0.266-0.095-0.388c-0.057-0.122-0.138-0.23-0.239-0.32l-2.608-2.504c-0.558-0.536-1.301-0.835-2.074-0.836s-1.517 0.296-2.076 0.83l-2.624 2.508zM6.725 12.69c0.173-0.194 0.263-0.447 0.253-0.706s-0.121-0.504-0.309-0.683c-0.188-0.179-0.437-0.278-0.697-0.277s-0.508 0.104-0.693 0.285l-2.502 2.614c-0.534 0.558-0.831 1.301-0.831 2.073s0.298 1.515 0.831 2.073l2.502 2.62c0.091 0.095 0.199 0.171 0.319 0.224s0.25 0.082 0.381 0.085c0.131 0.003 0.262-0.020 0.384-0.068s0.234-0.119 0.329-0.209c0.095-0.091 0.171-0.199 0.224-0.319s0.082-0.25 0.085-0.381c0.003-0.131-0.020-0.262-0.067-0.384s-0.119-0.234-0.209-0.329l-2.502-2.62c-0.177-0.186-0.276-0.433-0.276-0.69s0.099-0.504 0.276-0.69l2.502-2.618zM12.691 25.276c-0.094-0.096-0.206-0.172-0.33-0.224s-0.257-0.078-0.391-0.077c-0.134 0.001-0.267 0.029-0.39 0.082s-0.234 0.131-0.327 0.228c-0.093 0.097-0.165 0.212-0.212 0.337s-0.069 0.259-0.064 0.393c0.005 0.134 0.038 0.266 0.095 0.387s0.139 0.23 0.239 0.319l2.628 2.512c0.56 0.535 1.304 0.833 2.079 0.831s1.518-0.302 2.075-0.839l2.6-2.508c0.1-0.090 0.181-0.198 0.238-0.32s0.089-0.254 0.094-0.388c0.005-0.134-0.017-0.268-0.065-0.394s-0.121-0.24-0.214-0.337c-0.093-0.097-0.205-0.174-0.329-0.226s-0.257-0.080-0.391-0.080c-0.134-0-0.268 0.027-0.391 0.079s-0.236 0.129-0.329 0.226l-2.6 2.508c-0.186 0.179-0.434 0.28-0.693 0.28s-0.507-0.099-0.693-0.278l-2.63-2.512zM26.723 11.306c-0.091-0.095-0.2-0.171-0.32-0.224s-0.25-0.081-0.381-0.084c-0.131-0.003-0.262 0.021-0.384 0.068s-0.234 0.119-0.329 0.21c-0.095 0.091-0.171 0.2-0.224 0.32s-0.081 0.25-0.084 0.381c-0.003 0.131 0.021 0.262 0.068 0.384s0.119 0.234 0.21 0.329l2.516 2.62c0.179 0.186 0.279 0.435 0.279 0.693s-0.1 0.507-0.279 0.693l-2.516 2.608c-0.184 0.191-0.285 0.447-0.28 0.712s0.115 0.518 0.306 0.702c0.191 0.184 0.447 0.285 0.712 0.28s0.517-0.115 0.702-0.306l2.514-2.608c0.538-0.559 0.839-1.304 0.839-2.080s-0.3-1.521-0.837-2.080l-2.512-2.62zM12.999 10c-0.796 0-1.559 0.316-2.121 0.879s-0.879 1.326-0.879 2.121v6c0 0.796 0.316 1.559 0.879 2.121s1.326 0.879 2.121 0.879h6c0.796 0 1.559-0.316 2.121-0.879s0.879-1.326 0.879-2.121v-6c0-0.796-0.316-1.559-0.879-2.121s-1.326-0.879-2.121-0.879h-6zM11.999 13c0-0.265 0.105-0.52 0.293-0.707s0.442-0.293 0.707-0.293h6c0.265 0 0.52 0.105 0.707 0.293s0.293 0.442 0.293 0.707v6c0 0.265-0.105 0.52-0.293 0.707s-0.442 0.293-0.707 0.293h-6c-0.265 0-0.52-0.105-0.707-0.293s-0.293-0.442-0.293-0.707v-6z"></path>
</symbol>
<symbol id="icon-play" viewBox="0 0 32 32">
<path d="M6 4l20 12-20 12z"></path>
</symbol>
<symbol id="icon-pause" viewBox="0 0 32 32">
<path d="M4 4h10v24h-10zM18 4h10v24h-10z"></path>
</symbol>
<symbol id="icon-colorize" viewBox="0 0 32 32">
<path d="M4 28v-6.333l11.933-11.933-1.933-1.867 1.933-1.867 2.533 2.533 4.133-4.133c0.111-0.111 0.25-0.2 0.417-0.267s0.339-0.1 0.517-0.1c0.178 0 0.344 0.033 0.5 0.1s0.3 0.156 0.433 0.267l3.133 3.133c0.111 0.133 0.2 0.278 0.267 0.433s0.1 0.322 0.1 0.5c0 0.178-0.033 0.35-0.1 0.517s-0.156 0.306-0.267 0.417l-4.1 4.1 2.533 2.6-1.9 1.9-1.867-1.933-11.933 11.933h-6.333zM6.667 25.333h2.6l11.067-11.133-2.533-2.533-11.133 11.067v2.6zM21.567 11.667l3.2-3.2-1.233-1.233-3.2 3.2 1.233 1.233z"></path>
</symbol>
<symbol id="icon-screen" viewBox="0 0 32 32">
<path fill="#e5e5e5" style="fill: var(--color2, #e5e5e5)" d="M11.969 17.353c0-0.552 0.448-1 1-1h6.73c0.552 0 1 0.448 1 1s-0.448 1-1 1h-6.73c-0.552 0-1-0.448-1-1z"></path>
<path fill="#e5e5e5" style="fill: var(--color2, #e5e5e5)" d="M16.336 12.991c0.552 0 1 0.448 1 1v6.73c0 0.552-0.448 1-1 1s-1-0.448-1-1v-6.73c0-0.552 0.448-1 1-1z"></path>
<path fill="#e5e5e5" style="fill: var(--color2, #e5e5e5)" d="M13.737 6.516c-0.72 0-1.381 0.391-1.73 1.021-0.182 0.329-0.377 0.671-0.562 0.97-0.173 0.28-0.373 0.584-0.563 0.793l-0.017 0.018c-0.632 0.663-1.497 1.053-2.411 1.089-0.013 0.001-0.026 0.001-0.040 0.001-1.702 0-3.080 1.377-3.083 3.078v7.522c0 2.472 2.003 4.476 4.475 4.476h13.051c2.47 0 4.474-2.004 4.474-4.476v-7.526c0-1.702-1.38-3.083-3.082-3.083-0.012 0-0.024-0-0.036-0.001-0.917-0.033-1.784-0.425-2.415-1.086l-0.016-0.017c-0.19-0.209-0.384-0.507-0.55-0.781-0.177-0.292-0.363-0.627-0.536-0.951-0.346-0.646-1.015-1.048-1.744-1.048h-5.216zM10.257 6.569c0.7-1.266 2.031-2.053 3.48-2.053h5.216c1.471 0 2.815 0.812 3.507 2.104 0.164 0.307 0.332 0.609 0.483 0.858 0.156 0.257 0.262 0.406 0.313 0.464 0.268 0.276 0.631 0.44 1.014 0.457 2.797 0.011 5.062 2.283 5.062 5.082v7.526c0 3.576-2.899 6.476-6.474 6.476h-13.051c-3.577 0-6.475-2.9-6.475-6.476v-7.523c0.003-2.798 2.265-5.065 5.059-5.077 0.385-0.019 0.748-0.183 1.016-0.46 0.056-0.064 0.17-0.223 0.335-0.491 0.161-0.261 0.339-0.572 0.514-0.888z"></path>
</symbol>
<symbol id="icon-upload" viewBox="0 0 32 32">
<path fill="none" stroke="#f5f5f5" style="stroke: var(--color1, #f5f5f5)" stroke-linejoin="round" stroke-linecap="round" stroke-miterlimit="4" stroke-width="2" d="M10.161 12.563h-1.177c-2.565 0-4.646 2.081-4.646 4.646v6.147c0.001 2.565 2.081 4.644 4.646 4.644h14.031c2.566 0 4.646-2.080 4.646-4.644v-6.158c0-2.558-2.073-4.633-4.631-4.634h-1.188"></path>
<path fill="none" stroke="#f5f5f5" style="stroke: var(--color1, #f5f5f5)" stroke-linejoin="round" stroke-linecap="round" stroke-miterlimit="4" stroke-width="2" d="M15.999 4v15.18M15.999 4l-3.674 3.691M15.999 4l3.678 3.691"></path>
</symbol>
</defs>
</svg>

